<?xml version="1.0" encoding="utf-8"?>
<!-- Generator: Adobe Illustrator 25.2.0, SVG Export Plug-In . SVG Version: 6.00 Build 0)  -->
<svg version="1.1" id="Vrstva_1" xmlns="http://www.w3.org/2000/svg" xmlns:xlink="http://www.w3.org/1999/xlink" x="0px" y="0px"
	 viewBox="0 0 348.2 262.5" style="enable-background:new 0 0 348.2 262.5;" xml:space="preserve">
<style type="text/css">
	.st0{fill:#1D1D1B;}
</style>
<desc>Created with Fabric.js 1.7.22</desc>
<g id="icon" transform="translate(-1.9444444444444287 -1.9444444444444287) scale(3.89 3.89)">
	<path class="st0" d="M75.5,68H14.5C6.5,68,0,61.5,0,53.5V15C0,7,6.5,0.5,14.5,0.5h61.1C83.5,0.5,90,7,90,15v38.6
		C90,61.5,83.5,68,75.5,68z M14.5,4.7C8.8,4.7,4.2,9.3,4.2,15v38.6c0,5.6,4.6,10.2,10.2,10.2h61.1c5.6,0,10.2-4.6,10.2-10.2V15
		c0-5.6-4.6-10.2-10.2-10.2H14.5z"/>
	<path class="st0" d="M11,15.2c10.8,10.5,21.6,21.1,32.4,31.6c2,2,5.1-1.1,3.1-3.1C35.7,33.1,24.9,22.6,14.1,12.1
		C12.1,10.1,9,13.2,11,15.2L11,15.2z"/>
	<path class="st0" d="M46.5,46.7C57.3,36.2,68.2,25.7,79,15.2c2-2-1.1-5.1-3.1-3.1C65.1,22.6,54.3,33.1,43.5,43.7
		C41.4,45.6,44.5,48.7,46.5,46.7L46.5,46.7z"/>
	<path class="st0" d="M78.8,54.2c-7.2-6.8-14.4-13.6-21.6-20.5c-2-1.9-5.1,1.1-3.1,3.1c7.2,6.8,14.4,13.6,21.6,20.5
		C77.8,59.2,80.9,56.1,78.8,54.2L78.8,54.2z"/>
	<path class="st0" d="M14.4,57.3c7.2-6.8,14.4-13.6,21.6-20.5c2-1.9-1-5-3.1-3.1c-7.2,6.8-14.4,13.6-21.6,20.5
		C9.3,56.1,12.4,59.2,14.4,57.3L14.4,57.3z"/>
</g>
</svg>
